<!-- FiyatRadar category illustration | brand-agnostic | DO NOT add brand-specific elements -->
<svg viewBox="0 0 140 220" xmlns="http://www.w3.org/2000/svg"><path d="M18 130 Q40 70 100 84 Q120 88 122 104 Q120 134 100 156 Q40 168 18 130 Z" fill="#C3CAD3"/><path d="M14 130 L34 100 L34 158 Z" fill="#9AA4B0"/><path d="M76 100 Q72 130 78 156" stroke="#8090A0" stroke-width="2" fill="none"/><circle cx="100" cy="104" r="4" fill="#F5F1E8"/><circle cx="100" cy="104" r="2" fill="#18100A"/><path d="M70 90 L86 76 L90 96 Z" fill="#9AA4B0"/><path d="M46 120 q5 -6 10 0" stroke="#8090A0" stroke-width="1" fill="none" opacity="0.6"/><path d="M56 128 q5 -6 10 0" stroke="#8090A0" stroke-width="1" fill="none" opacity="0.6"/><path d="M66 120 q5 -6 10 0" stroke="#8090A0" stroke-width="1" fill="none" opacity="0.6"/><path d="M76 128 q5 -6 10 0" stroke="#8090A0" stroke-width="1" fill="none" opacity="0.6"/><path d="M86 120 q5 -6 10 0" stroke="#8090A0" stroke-width="1" fill="none" opacity="0.6"/><path d="M50 138 q5 -6 10 0" stroke="#8090A0" stroke-width="1" fill="none" opacity="0.6"/><path d="M60 144 q5 -6 10 0" stroke="#8090A0" stroke-width="1" fill="none" opacity="0.6"/><path d="M70 138 q5 -6 10 0" stroke="#8090A0" stroke-width="1" fill="none" opacity="0.6"/><path d="M80 144 q5 -6 10 0" stroke="#8090A0" stroke-width="1" fill="none" opacity="0.6"/><ellipse cx="70" cy="178" rx="44" ry="4" fill="#000000" opacity="0.14"/></svg>
