<!-- FiyatRadar category illustration | brand-agnostic | DO NOT add brand-specific elements -->
<svg viewBox="0 0 140 220" xmlns="http://www.w3.org/2000/svg"><ellipse cx="70" cy="208" rx="34" ry="4" fill="#000000" opacity="0.18"/><path d="M26 60 Q26 48 36 48 L104 48 Q114 48 114 60 L114 90 Q114 70 104 70 L36 70 Q26 70 26 90 Z" fill="#C68F4A"/><path d="M22 80 L118 80 Q120 86 118 92 L118 188 Q118 196 110 196 L30 196 Q22 196 22 188 L22 92 Q20 86 22 80 Z" fill="#F8F4EA"/><rect x="32" y="100" width="76" height="40" fill="#A8754A"/><text x="70" y="118" text-anchor="middle" font-family="Arial, Helvetica, sans-serif" font-size="10" font-weight="bold" fill="#FBFAF5" letter-spacing="1">SANDVİÇ</text><text x="70" y="132" text-anchor="middle" font-family="Arial, Helvetica, sans-serif" font-size="10" font-weight="bold" fill="#FBFAF5" letter-spacing="1">EKMEĞİ</text><line x1="32" y1="150" x2="108" y2="150" stroke="#D9B998" stroke-width="0.8"/><line x1="32" y1="160" x2="108" y2="160" stroke="#D9B998" stroke-width="0.8"/><line x1="32" y1="170" x2="108" y2="170" stroke="#D9B998" stroke-width="0.8"/><line x1="32" y1="180" x2="108" y2="180" stroke="#D9B998" stroke-width="0.8"/><circle cx="36" cy="62" r="3" fill="#7A5230"/><path d="M28 56 Q34 50 40 56" stroke="#7A5230" stroke-width="1.5" fill="none"/></svg>
