<!-- FiyatRadar category illustration | brand-agnostic | DO NOT add brand-specific elements -->
<svg viewBox="0 0 140 220" xmlns="http://www.w3.org/2000/svg"><ellipse cx="70" cy="208" rx="42" ry="4" fill="#000000" opacity="0.18"/><path d="M16 78 L124 78 L124 92 L16 92 Z" fill="#D8C9A8"/><path d="M14 90 L126 90 L120 192 Q116 200 108 200 L32 200 Q24 200 20 192 Z" fill="#EFE4CC"/><ellipse cx="34" cy="100" rx="10" ry="7" fill="#E0D2B8"/><ellipse cx="34" cy="96" rx="9" ry="5" fill="#FBFAF5"/><ellipse cx="56" cy="100" rx="10" ry="7" fill="#E0D2B8"/><ellipse cx="56" cy="96" rx="9" ry="5" fill="#FBFAF5"/><ellipse cx="78" cy="100" rx="10" ry="7" fill="#E0D2B8"/><ellipse cx="78" cy="96" rx="9" ry="5" fill="#FBFAF5"/><ellipse cx="100" cy="100" rx="10" ry="7" fill="#E0D2B8"/><ellipse cx="100" cy="96" rx="9" ry="5" fill="#FBFAF5"/><rect x="32" y="140" width="76" height="28" fill="#FBFAF5"/><rect x="32" y="140" width="76" height="14" fill="#C9442B"/><text x="70" y="151" text-anchor="middle" font-family="Arial, Helvetica, sans-serif" font-size="9" font-weight="bold" fill="#FBFAF5" letter-spacing="1.2">YUMURTA</text><text x="70" y="166" text-anchor="middle" font-family="Arial, Helvetica, sans-serif" font-size="8" font-weight="bold" fill="#C9442B">10'LU</text></svg>
