<!-- FiyatRadar category illustration | brand-agnostic | DO NOT add brand-specific elements -->
<svg viewBox="0 0 140 220" xmlns="http://www.w3.org/2000/svg"><ellipse cx="70" cy="208" rx="42" ry="4" fill="#000000" opacity="0.18"/><path d="M14 144 L126 144 L126 200 L14 200 Z" fill="#D9742E" opacity="0.2"/><g><rect x="22" y="48" width="6" height="14" rx="1" fill="#3D2A1C"/><rect x="14" y="62" width="32" height="86" fill="#FBFAF5" stroke="#D6D0C3" stroke-width="0.6"/><rect x="14" y="80" width="32" height="22" fill="#D9742E"/><circle cx="22" cy="91" r="3" fill="#F2B441"/><circle cx="32" cy="93" r="3" fill="#C9442B"/></g><g><rect x="50" y="48" width="6" height="14" rx="1" fill="#3D2A1C"/><rect x="42" y="62" width="32" height="86" fill="#FBFAF5" stroke="#D6D0C3" stroke-width="0.6"/><rect x="42" y="80" width="32" height="22" fill="#D9742E"/><circle cx="50" cy="91" r="3" fill="#F2B441"/><circle cx="60" cy="93" r="3" fill="#C9442B"/></g><g><rect x="78" y="48" width="6" height="14" rx="1" fill="#3D2A1C"/><rect x="70" y="62" width="32" height="86" fill="#FBFAF5" stroke="#D6D0C3" stroke-width="0.6"/><rect x="70" y="80" width="32" height="22" fill="#D9742E"/><circle cx="78" cy="91" r="3" fill="#F2B441"/><circle cx="88" cy="93" r="3" fill="#C9442B"/></g><g><rect x="106" y="48" width="6" height="14" rx="1" fill="#3D2A1C"/><rect x="98" y="62" width="28" height="86" fill="#FBFAF5" stroke="#D6D0C3" stroke-width="0.6"/><rect x="98" y="80" width="28" height="22" fill="#D9742E"/><circle cx="106" cy="91" r="3" fill="#F2B441"/><circle cx="116" cy="93" r="3" fill="#C9442B"/></g><rect x="14" y="152" width="112" height="44" fill="#D9742E"/><text x="70" y="170" text-anchor="middle" font-family="Arial, Helvetica, sans-serif" font-size="11" font-weight="bold" fill="#FBFAF5" letter-spacing="1">MEYVE SUYU</text><text x="70" y="188" text-anchor="middle" font-family="Arial, Helvetica, sans-serif" font-size="9" font-weight="bold" fill="#FBFAF5" letter-spacing="0.8">4 x 200 ML</text></svg>
