<!-- FiyatRadar category illustration | brand-agnostic | DO NOT add brand-specific elements -->
<svg viewBox="0 0 140 220" xmlns="http://www.w3.org/2000/svg"><defs><linearGradient id="g_tea" x1="0" x2="0" y1="0" y2="1"><stop offset="0%" stop-color="#A87038"/><stop offset="50%" stop-color="#C9904F"/><stop offset="100%" stop-color="#6E4A26"/></linearGradient></defs><ellipse cx="70" cy="208" rx="32" ry="4" fill="#000000" opacity="0.18"/><rect x="59" y="20" width="22" height="12" rx="2" fill="#3D2A1C"/><rect x="59" y="28" width="22" height="2" fill="#1A0F08"/><path d="M59 32 L81 32 L96 50 L96 188 Q96 196 88 196 L52 196 Q44 196 44 188 L44 50 Z" fill="url(#g_tea)" stroke="#8A5A28" stroke-width="0.6"/><rect x="44" y="76" width="52" height="54" fill="#FBFAF5"/><rect x="44" y="76" width="52" height="14" fill="#3D5A2A"/><text x="70" y="87" text-anchor="middle" font-family="Arial, Helvetica, sans-serif" font-size="8" font-weight="bold" fill="#FBFAF5" letter-spacing="0.6">SOĞUK ÇAY</text><text x="70" y="108" text-anchor="middle" font-family="Georgia, 'Times New Roman', serif" font-size="11" font-weight="bold" font-style="italic" fill="#A85230">şeftalili</text><path d="M62 116 Q58 124 64 130 Q70 124 76 130 Q70 122 76 116 Q70 120 62 116 Z" fill="#6B8E5A"/><path d="M62 116 Q70 124 76 130" stroke="#3D5A2A" stroke-width="0.8" fill="none"/></svg>
