<!-- FiyatRadar category illustration | brand-agnostic | DO NOT add brand-specific elements -->
<svg viewBox="0 0 140 220" xmlns="http://www.w3.org/2000/svg"><ellipse cx="70" cy="208" rx="34" ry="4" fill="#000000" opacity="0.18"/><path d="M30 58 L38 196 Q38 200 44 200 L96 200 Q102 200 102 196 L110 58 Z" fill="#FBFAF5" stroke="#D6D0C3" stroke-width="1.4"/><ellipse cx="70" cy="58" rx="40" ry="6.5" fill="#E3DFD6"/><ellipse cx="70" cy="56" rx="40" ry="6.5" fill="#FFFFFF"/><circle cx="56" cy="55" r="2.2" fill="#FFFFFF"/><circle cx="64" cy="52" r="1.6" fill="#FFFFFF"/><circle cx="74" cy="54" r="2" fill="#FFFFFF"/><circle cx="82" cy="53" r="1.6" fill="#FFFFFF"/><circle cx="88" cy="55" r="1.4" fill="#FFFFFF"/><rect x="38" y="96" width="64" height="64" fill="#FFFFFF"/><rect x="38" y="96" width="64" height="64" fill="none" stroke="#E3DFD6" stroke-width="1"/><rect x="38" y="96" width="64" height="14" fill="#2E5A8A"/><text x="70" y="107" text-anchor="middle" font-family="Arial, Helvetica, sans-serif" font-size="9" font-weight="bold" fill="#FFFFFF" letter-spacing="1">AYRAN</text><text x="70" y="138" text-anchor="middle" font-family="Georgia, 'Times New Roman', serif" font-size="15" font-weight="bold" font-style="italic" fill="#2E5A8A">ayran</text><path d="M46 148 Q54 152 62 148 Q70 144 78 148 Q86 152 94 148" stroke="#2E5A8A" stroke-width="1.4" fill="none" opacity="0.7"/></svg>
