<!-- FiyatRadar category illustration | brand-agnostic | DO NOT add brand-specific elements -->
<svg viewBox="0 0 140 220" xmlns="http://www.w3.org/2000/svg"><ellipse cx="70" cy="208" rx="36" ry="4" fill="#000000" opacity="0.18"/><rect x="33" y="54" width="74" height="18" rx="3" fill="#3D2A1C"/><rect x="33" y="68" width="74" height="4" fill="#1A0F08"/><rect x="29" y="72" width="82" height="6" fill="#1A0F08"/><rect x="29" y="78" width="82" height="118" rx="6" fill="#F2D58A" stroke="#A8754A" stroke-width="0.8"/><rect x="29" y="96" width="82" height="44" fill="#FBFAF5"/><text x="70" y="118" text-anchor="middle" font-family="Georgia, 'Times New Roman', serif" font-size="14" font-weight="bold" font-style="italic" fill="#C8902C">bal</text><text x="70" y="134" text-anchor="middle" font-family="Arial, Helvetica, sans-serif" font-size="7" font-weight="bold" fill="#8A6B4A" letter-spacing="0.8">ÇİÇEK BALI</text><path d="M52 154 L60 154 L62 162 L60 170 L52 170 L50 162 Z" fill="#FBFAF5" stroke="#C8902C" stroke-width="1"/><path d="M62 154 L70 154 L72 162 L70 170 L62 170 L60 162 Z" fill="#C8902C" stroke="#8A6B4A" stroke-width="1"/><path d="M72 154 L80 154 L82 162 L80 170 L72 170 L70 162 Z" fill="#FBFAF5" stroke="#C8902C" stroke-width="1"/><path d="M82 154 L90 154 L88 162 L86 170 L78 170 L80 162 Z" fill="#C8902C" stroke="#8A6B4A" stroke-width="1"/><text x="70" y="186" text-anchor="middle" font-family="Arial, Helvetica, sans-serif" font-size="6.5" font-weight="bold" fill="#8A6B4A">850 G</text></svg>
