<!-- FiyatRadar category illustration | brand-agnostic | DO NOT add brand-specific elements -->
<svg viewBox="0 0 140 220" xmlns="http://www.w3.org/2000/svg"><path d="M48 80 L70 70 L92 80 L82 92 L70 84 L58 92 Z" fill="#6B8E5A"/><circle cx="70" cy="78" r="4" fill="#4A6B3A"/><path d="M70 88 Q40 88 38 116 Q38 142 70 172 Q102 142 102 116 Q100 88 70 88 Z" fill="#B85A3D"/><ellipse cx="56" cy="110" rx="1.2" ry="2" fill="#D4A84A" transform="rotate(20 56 110)"/><ellipse cx="70" cy="104" rx="1.2" ry="2" fill="#D4A84A" transform="rotate(0 70 104)"/><ellipse cx="84" cy="110" rx="1.2" ry="2" fill="#D4A84A" transform="rotate(-20 84 110)"/><ellipse cx="50" cy="128" rx="1.2" ry="2" fill="#D4A84A" transform="rotate(30 50 128)"/><ellipse cx="66" cy="124" rx="1.2" ry="2" fill="#D4A84A" transform="rotate(10 66 124)"/><ellipse cx="82" cy="124" rx="1.2" ry="2" fill="#D4A84A" transform="rotate(-10 82 124)"/><ellipse cx="94" cy="128" rx="1.2" ry="2" fill="#D4A84A" transform="rotate(-30 94 128)"/><ellipse cx="58" cy="146" rx="1.2" ry="2" fill="#D4A84A" transform="rotate(30 58 146)"/><ellipse cx="70" cy="142" rx="1.2" ry="2" fill="#D4A84A" transform="rotate(0 70 142)"/><ellipse cx="82" cy="146" rx="1.2" ry="2" fill="#D4A84A" transform="rotate(-30 82 146)"/><ellipse cx="66" cy="160" rx="1.2" ry="2" fill="#D4A84A" transform="rotate(0 66 160)"/><ellipse cx="78" cy="158" rx="1.2" ry="2" fill="#D4A84A" transform="rotate(-20 78 158)"/><ellipse cx="70" cy="204" rx="30" ry="4" fill="#000000" opacity="0.14"/></svg>
