<!-- FiyatRadar category illustration | brand-agnostic | DO NOT add brand-specific elements -->
<svg viewBox="0 0 140 220" xmlns="http://www.w3.org/2000/svg"><path d="M50 92 Q40 132 60 182 Q66 190 70 182 L70 98 Z" fill="#6FA04A"/><path d="M90 92 Q100 132 80 182 Q74 190 70 182 L70 98 Z" fill="#80B158"/><path d="M70 70 Q90 80 90 132 Q90 170 70 178 Q50 170 50 132 Q50 80 70 70 Z" fill="#E8C24A"/><g fill="#D2A62C"><circle cx="62" cy="92" r="3"/><circle cx="70" cy="90" r="3"/><circle cx="78" cy="92" r="3"/><circle cx="60" cy="106" r="3"/><circle cx="70" cy="104" r="3"/><circle cx="80" cy="106" r="3"/><circle cx="60" cy="120" r="3"/><circle cx="70" cy="118" r="3"/><circle cx="80" cy="120" r="3"/><circle cx="62" cy="134" r="3"/><circle cx="70" cy="132" r="3"/><circle cx="78" cy="134" r="3"/><circle cx="64" cy="148" r="3"/><circle cx="70" cy="146" r="3"/><circle cx="76" cy="148" r="3"/></g><ellipse cx="70" cy="205" rx="30" ry="4" fill="#000000" opacity="0.14"/></svg>
